<svg width="34" height="36" viewBox="0 0 34 36" fill="none" xmlns="http://www.w3.org/2000/svg"><path fill-rule="evenodd" clip-rule="evenodd" d="M20.3223 0H13.2094C12.0917 0 11.1772 0.914515 11.1772 2.03226V2.62554H4.37477C3.40827 2.62554 2.62477 3.40904 2.62477 4.37554V5.71972C1.57858 6.32487 0.874694 7.456 0.874694 8.75152V18.3841C0.344381 18.4424 -3.69425e-05 18.8314 -3.69425e-05 19.3927V33.9854C-3.69425e-05 34.5951 0.406414 35.0015 1.01609 35.0015H7.11286V34.9976H26.42V35.0015H32.5167C33.1264 35.0015 33.5329 34.5951 33.5329 33.9854V19.3927C33.5329 18.783 33.1264 18.3765 32.5167 18.3765H32.3747V8.75153C32.3747 7.45607 31.6709 6.32499 30.6247 5.71981V4.37554C30.6247 3.40904 29.8412 2.62554 28.8747 2.62554H22.3546V2.03226C22.3546 0.914515 21.4401 0 20.3223 0Z" fill="#FFC700"/><path d="M2.62479 4.37555C2.62479 3.40905 3.40829 2.62555 4.37478 2.62555H28.8748C29.8413 2.62555 30.6248 3.40905 30.6248 4.37555V14.0005C30.6248 14.967 29.8413 15.7505 28.8748 15.7505H4.37479C3.40829 15.7505 2.62479 14.967 2.62479 14.0005V4.37555Z" fill="#E5AE7C"/><path d="M13.2094 0H20.3223C21.4401 0 22.3546 0.914515 22.3546 2.03226V10.1613C22.3546 11.279 21.4401 12.1935 20.3223 12.1935H13.2094C12.0917 12.1935 11.1772 11.279 11.1772 10.1613V2.03226C11.1772 0.914515 12.0917 0 13.2094 0Z" fill="#E5AE7C"/><path d="M0.874695 8.75152C0.874695 6.81852 2.4417 5.25153 4.37469 5.25153H28.8747C30.8077 5.25153 32.3747 6.81853 32.3747 8.75152V20.1265H0.874695V8.75152Z" fill="#AA572A"/><rect x="4.37497" y="8.75" width="24.5" height="10.5" fill="#743611"/><path d="M29.7499 19.2495H4.37497V32.3744H29.7499V19.2495Z" fill="#AA572A"/><path d="M29.468 30.9367H4.06476V35.0012H29.468V30.9367Z" fill="#E5AE7C"/><path d="M13.2091 14.6757H20.322C21.4397 14.6757 22.3543 15.5902 22.3543 16.7079V24.8369C22.3543 25.9547 21.4397 26.8692 20.322 26.8692H13.2091C12.0914 26.8692 11.1768 25.9547 11.1768 24.8369V16.7079C11.1768 15.5902 12.0914 14.6757 13.2091 14.6757Z" fill="#E5AE7C"/><path fill-rule="evenodd" clip-rule="evenodd" d="M19.3056 19.246C19.3056 17.8234 18.1879 16.7057 16.7653 16.7057C15.3427 16.7057 14.225 17.8234 14.225 19.246C14.225 20.0909 14.6192 20.8282 15.2374 21.2877L14.4284 23.4113V23.7161C14.4284 24.3258 14.8349 24.7323 15.4446 24.7323H17.8833H18.1881C18.6962 24.6307 19.1026 24.021 18.8994 23.5129L18.2927 21.2882C18.9112 20.8287 19.3056 20.0911 19.3056 19.246Z" fill="#C07F41"/><path d="M1.0161 18.3765H6.09674C6.70641 18.3765 7.11287 18.783 7.11287 19.3927V35.0015H1.0161C0.406421 35.0015 -3.05176e-05 34.5951 -3.05176e-05 33.9854V19.3927C-3.05176e-05 18.783 0.406421 18.3765 1.0161 18.3765Z" fill="#E5AE7C"/><path d="M27.4361 18.3765H32.5168C33.1264 18.3765 33.5329 18.783 33.5329 19.3927V33.9854C33.5329 34.5951 33.1264 35.0015 32.5168 35.0015H26.42V19.3927C26.42 18.783 26.8264 18.3765 27.4361 18.3765Z" fill="#E5AE7C"/></svg>