<svg width="172" height="184" viewBox="0 0 172 184" fill="none" xmlns="http://www.w3.org/2000/svg"><ellipse opacity="0.3" cx="108" cy="154" rx="38" ry="13" fill="#4B4B4B"/><path d="M115.552 152.56C117.502 150.034 118.866 145.823 115.166 143.274C110.704 140.202 109.396 144.554 107.309 146.476C105.008 148.596 102.303 153.723 106.561 156.292C110.924 158.925 113.646 155.03 115.552 152.56Z" fill="#F59308"/><path d="M143.96 72.2514C112.152 73.361 117.264 61.4229 103.327 61.4229C91.0614 61.4229 85.565 73.2878 84.3499 79.2202C82.277 74.2526 77.1237 64.3176 73.0925 64.3176C68.0535 64.3176 64.9443 77.612 64.9443 84.7953C64.9443 91.9785 69.4473 100.984 78.1315 115.244C81.6695 147.086 106.328 151.267 118.872 151.267C128.908 151.267 137.635 143.191 140.744 139.152C142.016 140.827 144.26 143.977 150.179 143.977C157.576 143.977 156.611 139.688 156.826 135.293C156.997 131.776 153.967 120.89 152.43 115.887C153.824 110.419 156.976 98.0682 158.434 92.4074C159.613 86.189 157.889 71.7654 143.96 72.2514Z" fill="#5DCD04"/><path d="M99.3593 137.92C97.631 137.307 95.1599 134.979 95.9861 133.543C96.5157 132.623 97.8539 133.488 100.976 134.742C104.098 135.997 105.724 136.184 105.13 137.335C104.032 139.461 100.612 138.365 99.3593 137.92Z" fill="#8BE309"/><path d="M119.01 99.6241C108.475 99.6241 102.671 78.3638 100.21 78.3638C96.9713 78.6839 95.7157 83.2557 95.4928 85.5014C95.251 83.9567 94.3538 81.0346 92.701 81.7047C90.6352 82.5422 89.7976 84.6081 89.3509 87.6792C86.2241 89.075 84.3256 91.9226 83.5998 94.4911C83.3765 95.3473 82.6282 98.2992 81.4221 103.257C79.9145 109.455 84.9956 121.237 94.2644 121.795C101.68 122.242 105.581 119.003 106.604 117.328L117.157 120.511C117.958 124.14 121.915 131.399 131.34 131.399C140.765 131.399 144.945 124.885 145.857 121.628C146.348 119.99 147.538 115.955 148.37 112.917C149.41 109.12 148.37 105.156 147.075 102.551C148.801 98.7592 147.952 96.6369 147.33 96.1558C146.707 95.6748 145.57 96.3436 143.235 97.416C143.993 96.3436 146.327 90.2872 143.677 90.2872C141.027 90.2872 128.599 99.6241 119.01 99.6241Z" fill="#8BE309"/><path d="M107.167 102.505C107.167 95.3965 100.626 91.3916 94.9863 91.3916C89.3796 91.5785 87.533 96.0528 87.3105 98.2665C87.177 99.201 86.7432 102.111 86.0757 106.276C89.7134 110.448 91.916 114.486 92.4499 115.787C92.9172 116.321 94.686 117.223 96.8886 117.223C102.996 117.223 107.167 109.613 107.167 102.505Z" fill="white"/><path d="M143.749 111.366C144.383 108.915 141.678 102.238 134.832 102.238C126.414 102.238 123.351 107.985 122.872 110.859C122.788 111.155 122.382 112.752 121.435 116.775C120.252 121.804 123.76 124.89 125.83 126.157C129.38 124.002 137.663 122.523 139.269 122.861C140.283 122.185 141.044 120.269 141.298 119.396C141.903 117.367 143.242 113.327 143.749 111.366Z" fill="white"/><path d="M135.945 111.207C136.677 107.743 134.257 104.724 131.548 104.724C131.166 104.724 130.393 104.754 129.816 104.865C129.567 104.913 129.395 105.127 129.356 105.377C128.619 110.139 127.456 110.496 126.419 110.496C126.068 110.496 125.734 110.444 125.445 110.37C124.991 110.256 124.459 110.508 124.368 110.967C124.139 112.113 123.823 113.69 123.622 114.671C123.289 116.291 123.6 120.799 128.84 120.799C134.08 120.799 135.212 114.671 135.945 111.207Z" fill="#4C4C4C"/><path d="M105.41 102.212C106.143 98.7481 103.723 95.7285 101.014 95.7285C100.632 95.7285 99.8591 95.7593 99.2816 95.87C99.0325 95.9177 98.8607 96.1317 98.8219 96.3822C98.0849 101.144 96.922 101.501 95.8852 101.501C95.5335 101.501 95.1999 101.448 94.9106 101.375C94.4567 101.261 93.9252 101.513 93.8336 101.972C93.6052 103.118 93.2892 104.694 93.0877 105.675C92.7546 107.296 93.0654 111.804 98.3054 111.804C103.545 111.804 104.678 105.675 105.41 102.212Z" fill="#4C4C4C"/><path d="M113.688 142.064C111.873 141.804 108.991 140.008 109.518 138.439C109.856 137.432 111.339 138.016 114.647 138.63C117.955 139.244 119.586 139.107 119.23 140.352C118.573 142.654 115.005 142.253 113.688 142.064Z" fill="#8BE309"/><path d="M104.488 145.724C102.727 145.305 100.124 143.437 100.863 142.127C101.337 141.286 102.723 141.951 105.913 142.836C109.102 143.722 110.735 143.775 110.211 144.822C109.241 146.755 105.765 146.028 104.488 145.724Z" fill="#8BE309"/><path d="M112.445 115.998L112.445 115.998C109.758 115.231 106.957 116.788 106.19 119.476L104.953 123.813C104.186 126.501 105.744 129.302 108.431 130.069L108.431 130.069C111.119 130.835 113.92 129.278 114.687 126.59L115.924 122.253C116.691 119.565 115.133 116.765 112.445 115.998Z" fill="#F59104"/><path d="M114.848 122.191C115.451 120.079 114.227 117.878 112.114 117.275C110.002 116.673 107.801 117.897 107.198 120.009L106.186 123.558C105.583 125.67 106.807 127.871 108.92 128.474C111.032 129.076 113.233 127.853 113.836 125.74L114.848 122.191Z" fill="#A46000"/><path d="M118.255 120.513C118.576 116.613 114.462 113.356 111.612 113.356C108.098 113.121 105.65 114.861 105.034 116.678C104.606 117.942 108.484 121.392 110.798 122.184C113.176 122.927 118.164 121.611 118.255 120.513Z" fill="#FDC304"/><path d="M131.621 148.575C131.095 151.807 128.894 155.783 124.39 154.795C118.959 153.604 121.304 149.573 121.282 146.661C121.258 143.45 123.205 137.828 128.115 139.219C133.148 140.644 132.136 145.414 131.621 148.575Z" fill="#F59308"/><path d="M113.801 116.93C113.33 116.402 112.055 115.451 110.722 115.87" stroke="#FFDE00" stroke-width="3.58615" stroke-linecap="round"/><path d="M113.807 125.829C113.17 127.888 111 129.071 108.917 128.477C106.804 127.874 105.58 125.673 106.183 123.561L106.207 123.476C107.475 122.964 108.93 122.864 110.356 123.288C111.831 123.727 113.025 124.652 113.807 125.829Z" fill="#FFB4FC"/><rect x="63.7271" y="64.645" width="12.2894" height="6.70334" rx="3.35167" fill="#58CC02"/><path d="M40.5743 74.1367C40.952 74.3265 40.9163 74.9304 40.52 75.0774C39.388 75.4974 37.718 76.2254 36.7236 77.161C35.622 78.1976 34.7071 80.1199 34.1798 81.404C34.0145 81.8067 33.3774 81.8041 33.2155 81.4C32.7011 80.1165 31.8095 78.1981 30.7342 77.161C29.7232 76.1861 28.0773 75.4654 26.9704 75.0579C26.5783 74.9135 26.5315 74.3204 26.8993 74.1221C28.0063 73.5253 29.7028 72.5129 30.7342 71.4249C31.7368 70.3672 32.7258 68.7252 33.2681 67.7592C33.4489 67.4372 33.9314 67.4397 34.1091 67.7635C34.6601 68.7673 35.6834 70.4989 36.7236 71.5695C37.7356 72.611 39.4426 73.5681 40.5743 74.1367Z" fill="white"/><path opacity="0.6" d="M109.16 16.8682C109.444 17.0105 109.417 17.4632 109.12 17.5734C108.271 17.8883 107.019 18.434 106.274 19.1354C105.448 19.9125 104.762 21.3536 104.367 22.3163C104.243 22.6181 103.765 22.6161 103.644 22.3132C103.258 21.351 102.59 19.9129 101.784 19.1354C101.026 18.4045 99.7919 17.8643 98.9621 17.5588C98.6681 17.4506 98.633 17.0059 98.9088 16.8573C99.7386 16.4099 101.01 15.6509 101.784 14.8353C102.535 14.0424 103.277 12.8114 103.683 12.0873C103.819 11.8458 104.18 11.8478 104.314 12.0905C104.727 12.843 105.494 14.1411 106.274 14.9436C107.032 15.7244 108.312 16.4419 109.16 16.8682Z" fill="white"/><path d="M49.5747 47.8689C49.5747 44.6014 52.2235 41.9526 55.4909 41.9526H80.5387C83.8062 41.9526 86.455 44.6014 86.455 47.8689V63.5576C86.455 64.8646 85.3954 65.9241 84.0885 65.9241H51.9412C50.6342 65.9241 49.5747 64.8646 49.5747 63.5576V47.8689Z" fill="#CE7D03"/><path d="M48.2964 39.3064C48.2964 36.0389 50.9452 33.3901 54.2126 33.3901H82.0189C85.2863 33.3901 87.9351 36.0389 87.9351 39.3064V56.9071H48.2964V39.3064Z" fill="#CE7D03"/><rect x="46.5195" y="49.6602" width="43.5593" height="6.80366" fill="#FEC700"/><path d="M84.2358 39.4536H88.896C89.5495 39.4536 90.0793 39.9834 90.0793 40.6369V51.434H84.2358V39.4536Z" fill="#FEC700"/><path d="M46.5195 40.6369C46.5195 39.9834 47.0493 39.4536 47.7028 39.4536H51.4755C52.129 39.4536 52.6588 39.9834 52.6588 40.6369V50.2507C52.6588 50.9042 52.129 51.434 51.4755 51.434H47.7028C47.0493 51.434 46.5195 50.9042 46.5195 50.2507V40.6369Z" fill="#FEC700"/><path d="M48.2964 32.6832C48.2964 32.0298 48.8261 31.5 49.4796 31.5H55.6917C56.3452 31.5 56.8749 32.0298 56.8749 32.6832V44.7803H48.2964V32.6832Z" fill="#FEC700"/><path d="M79.3574 32.6832C79.3574 32.0298 79.8872 31.5 80.5407 31.5H86.7527C87.4062 31.5 87.9359 32.0298 87.9359 32.6832V44.7803H79.3574V32.6832Z" fill="#FEC700"/><path d="M48.3745 38.6668L56.8423 36.5586V44.0241L48.3745 43.9204V38.6668Z" fill="#FEF400"/><path d="M48.2964 43.1416H56.8749V51.6959H48.2964V43.1416Z" fill="#EEAB00"/><path d="M48.2964 55.4274C48.2964 54.7739 48.8261 54.2441 49.4796 54.2441H55.6917C56.3452 54.2441 56.8749 54.7739 56.8749 55.4274V65.9599C56.8749 66.6134 56.3452 67.1431 55.6917 67.1431H49.4796C48.8261 67.1431 48.2964 66.6134 48.2964 65.9599V55.4274Z" fill="#EEAB00"/><path d="M78.5796 55.4274C78.5796 54.7739 79.1093 54.2441 79.7628 54.2441H85.9749C86.6284 54.2441 87.1581 54.7739 87.1581 55.4274V65.9599C87.1581 66.6134 86.6284 67.1431 85.9749 67.1431H79.7628C79.1093 67.1431 78.5796 66.6134 78.5796 65.9599V55.4274Z" fill="#EEAB00"/><rect x="79.3574" y="43.1406" width="8.57852" height="8.55426" fill="#EEAB00"/><rect x="66.4897" y="53.875" width="3.25392" height="5.73134" fill="#C4C4C4"/><rect x="48.2964" y="57.0591" width="8.57852" height="2.88416" fill="#BF7402"/><rect x="78.5796" y="57.0586" width="8.57852" height="2.88416" fill="#BF7402"/><rect x="56.8726" y="62.0811" width="21.7051" height="1.55301" fill="#B46C00"/><rect x="56.8726" y="38.3691" width="22.4817" height="1.55301" fill="#B46C00"/><rect opacity="0.92" x="56.8726" y="57.0586" width="21.7051" height="2.88416" fill="#8F5702"/><rect opacity="0.92" x="56.8726" y="45.2539" width="22.4817" height="4.40597" fill="#B46C00"/><path d="M46.5195 51.6934H90.0789V57.0549C90.0789 57.7084 89.5491 58.2382 88.8956 58.2382H47.7028C47.0493 58.2382 46.5195 57.7084 46.5195 57.0549V51.6934Z" fill="#EEAB00"/><rect x="61.7524" y="47.0703" width="12.3501" height="10.7414" rx="1.77487" fill="#FEC700"/><path d="M64.512 47.0703H63.5273C62.5471 47.0703 61.7524 47.8649 61.7524 48.8452V56.0369C61.7524 57.0171 62.5471 57.8117 63.5273 57.8117H64.1198C64.4299 57.8117 64.6793 57.5568 64.6727 57.2468L64.512 49.7791V47.0703Z" fill="#FEF400"/><rect x="61.7524" y="49.7139" width="12.3501" height="10.588" rx="1.77487" fill="#EEAB00"/><ellipse cx="67.7255" cy="53.7526" rx="2.32951" ry="2.09196" fill="#BF7402"/><path d="M67.1964 54.8722C67.4144 54.4362 68.0366 54.4362 68.2547 54.8722L69.3148 56.9922C69.5115 57.3856 69.2254 57.8485 68.7856 57.8485H66.6654C66.2256 57.8485 65.9395 57.3856 66.1362 56.9922L67.1964 54.8722Z" fill="#BF7402"/><path d="M79.3779 34.0876L87.918 32.0269V36.7274L79.3779 38.7881V34.0876Z" fill="#FEF400"/><rect x="56.7739" y="49.416" width="4.98236" height="2.24438" fill="#FEF400"/></svg>